<svg xmlns="http://www.w3.org/2000/svg" xmlns:xlink="http://www.w3.org/1999/xlink"><defs>
<symbol id="icon-cart" viewBox="0 0 40 32">
<title>icon-cart</title>
<path d="M40.027 7.082l-5.659 12.551c-0.282 0.627-0.884 1.064-1.592 1.104l-0.005 0-16.248 1.084 0.936 2.686h17.709c2.080 0 3.765 1.686 3.765 3.765s-1.686 3.765-3.765 3.765c-2.079 0-3.764-1.684-3.765-3.763v-0h-17.572c-0.001 2.079-1.687 3.763-3.765 3.763s-3.765-1.686-3.765-3.765 1.686-3.765 3.765-3.765h3.4l-7.257-20.71h-4.313c-1.040 0-1.883-0.843-1.883-1.883s0.843-1.883 1.883-1.883v0h5.659c0.817 0.006 1.51 0.525 1.776 1.251l0.004 0.013 1.095 3.133h27.864c0.003 0 0.006-0 0.009-0 1.040 0 1.884 0.843 1.885 1.883v0c-0.006 0.279-0.064 0.542-0.165 0.783l0.005-0.014zM11.752 8.194l3.469 9.943 16.18-1.079 3.994-8.863h-23.642z"/>
</symbol>

<symbol id="icon-search" viewBox="0 0 32 32">
<title>icon-search</title>
<path d="M31.111 26.862c0.511 0.537 0.825 1.265 0.825 2.067 0 1.657-1.344 3.001-3.001 3.001-0.804 0-1.535-0.316-2.074-0.832l0.001 0.001-8.769-8.78c-1.753 1.056-3.87 1.68-6.132 1.68-6.645 0-12.032-5.387-12.032-12.032s5.387-12.032 12.032-12.032c6.645 0 12.032 5.387 12.032 12.032 0 2.255-0.62 4.365-1.7 6.169l0.030-0.055 8.788 8.78zM12.011 3.016c-4.963 0-8.987 4.024-8.987 8.987s4.024 8.987 8.987 8.987c4.963 0 8.987-4.024 8.987-8.987v0c-0.003-4.962-4.025-8.984-8.987-8.987h-0z"/>
</symbol>

<symbol id="icon-facebook" viewBox="0 0 16 32">
<title>icon-facebook</title>
<path d="M14.879 0.245c0 1.817 0 5.072 0 5.072s-3.738-0.373-4.674 1.060c-0.512 0.783-0.208 3.077-0.254 4.724 1.632 0 3.327 0 4.959 0-0.418 1.925-0.719 3.23-1.028 4.896-1.412 0-3.958 0-3.958 0v15.759c0 0-4.673 0-6.87 0 0.001-4.858-0.001-10.526 0-15.697-1.067 0-1.856 0-2.923 0 0-1.817 0-3.14 0-4.958 1.035 0 1.855 0 2.891 0 0.148-3.626 0.203-7.217 2.005-9.046 2.023-2.057 3.954-1.809 9.852-1.809z"/>
</symbol>

<symbol id="icon-instagram" viewBox="0 0 32 32">
<title>icon-instagram</title>
<path d="M27.938 31.754h-23.631c-2.175 0-3.938-1.764-3.938-3.94v-23.63c0-2.176 1.764-3.94 3.938-3.94h23.631c2.175 0 3.938 1.764 3.938 3.94v23.63c0 2.176-1.764 3.94-3.938 3.94zM16.123 9.894c-2.457 0-4.567 1.455-5.536 3.545h-0.006c-0.010 0.022-0.017 0.046-0.027 0.068-0.058 0.129-0.108 0.262-0.158 0.395-0.023 0.065-0.049 0.128-0.070 0.192-0.046 0.138-0.082 0.277-0.117 0.418-0.017 0.065-0.037 0.13-0.052 0.197-0.032 0.149-0.054 0.3-0.075 0.453-0.009 0.062-0.021 0.122-0.028 0.185-0.022 0.214-0.036 0.432-0.036 0.654 0 3.371 2.734 6.103 6.105 6.103s6.105-2.732 6.105-6.103c0-0.222-0.014-0.439-0.036-0.654-0.007-0.063-0.020-0.123-0.028-0.185-0.021-0.153-0.043-0.304-0.075-0.453-0.015-0.066-0.034-0.132-0.052-0.197-0.034-0.142-0.071-0.281-0.117-0.418-0.021-0.064-0.047-0.127-0.070-0.192-0.049-0.133-0.1-0.266-0.158-0.395-0.010-0.022-0.017-0.046-0.027-0.068h-0.006c-0.969-2.090-3.079-3.545-5.536-3.545zM28.332 5.365c0-0.87-0.705-1.574-1.575-1.574h-3.151c-0.87 0-1.575 0.704-1.575 1.574v3.152c0 0.87 0.705 1.575 1.575 1.575h3.151c0.87 0 1.575-0.705 1.575-1.575v-3.152zM28.332 13.439h-2.905c0.224 0.816 0.345 1.675 0.345 2.561 0 5.329-4.32 9.648-9.649 9.648s-9.649-4.319-9.649-9.648c0-0.886 0.121-1.745 0.345-2.561h-2.905v13.194c0 0.871 0.705 1.577 1.575 1.577h21.268c0.87 0 1.575-0.705 1.575-1.577v-13.194z"/>
</symbol>

<symbol id="icon-pinterest" viewBox="0 0 26 32">
<title>icon-pinterest</title>
<path d="M11.14 20.743c-0.257 1.025-0.517 2.1-0.785 3.151-0.265 1.036-0.498 2.087-0.884 3.040-0.639 1.577-1.45 3.1-2.514 4.334-0.708 0.821-0.558 0.494-0.77 0.449-0.162-0.034-0.176-0.193-0.208-0.425-0.174-1.253-0.055-2.702 0.009-4.11 0.074-1.605 0.411-2.939 0.725-4.272 0.596-2.54 1.164-5.030 1.766-7.586 0.039-0.17 0.148-0.45 0.111-0.548-0.273-0.71-0.45-1.348-0.528-2.094-0.090-0.855-0.021-1.654 0.171-2.391 0.341-1.302 1.124-2.455 2.331-2.878 0.768-0.266 1.618-0.145 2.135 0.162 0.532 0.319 0.897 0.821 1.067 1.534 0.182 0.757 0.048 1.663-0.098 2.327-0.329 1.5-0.761 2.626-1.153 4.074-0.194 0.718-0.415 1.455-0.233 2.23 0.167 0.711 0.538 1.201 1.042 1.569 0.524 0.382 1.145 0.59 2 0.56 1.511-0.053 2.561-1.019 3.263-1.93 1.124-1.458 1.803-3.426 2.062-5.767 0.082-0.756 0.144-1.623 0.086-2.479-0.108-1.58-0.602-2.852-1.387-3.836-0.746-0.939-1.804-1.685-3.092-2.106-1.276-0.416-3.042-0.555-4.612-0.287-2.853 0.489-4.864 2.11-6.049 4.348-0.62 1.172-1.030 2.519-1.030 4.197 0 1.294 0.319 2.295 0.834 3.077 0.164 0.247 0.404 0.452 0.564 0.735 0.228 0.401-0.034 0.998-0.146 1.433-0.135 0.523-0.15 1.246-0.761 1.258-0.254 0.005-0.571-0.18-0.785-0.299-1.606-0.887-2.581-2.502-2.981-4.596-0.244-1.273-0.242-2.756 0-3.985 0.234-1.19 0.67-2.287 1.153-3.177 1.002-1.85 2.47-3.329 4.257-4.385 1.374-0.812 2.923-1.382 4.809-1.657 0.625-0.091 1.273-0.129 1.975-0.162 2.053-0.096 3.919 0.369 5.324 0.997 1.483 0.663 2.667 1.546 3.668 2.641 1.031 1.126 1.782 2.436 2.257 4.073 0.249 0.852 0.49 1.762 0.49 2.815 0 1.056-0.223 1.985-0.379 2.914-0.583 3.481-2.239 6.327-4.724 7.948-0.602 0.391-1.33 0.754-2.159 0.996-0.821 0.239-1.758 0.418-2.761 0.348-0.974-0.066-1.771-0.331-2.441-0.71-0.665-0.375-1.223-0.836-1.62-1.531z"/>
</symbol>

<symbol id="icon-twitter" viewBox="0 0 38 32">
<title>icon-twitter</title>
<path d="M25.473 0.874c2.959-0.052 4.534 1.025 6.038 2.396 1.277-0.109 2.937-0.822 3.914-1.319 0.316-0.172 0.633-0.346 0.95-0.519-0.559 1.508-1.315 2.689-2.479 3.587-0.259 0.198-0.515 0.467-0.839 0.593 0 0.006 0 0.013 0 0.019 1.658-0.016 3.025-0.765 4.324-1.171 0 0.006 0 0.013 0 0.019-0.682 1.084-1.606 2.185-2.591 2.973-0.397 0.316-0.796 0.631-1.193 0.947 0.022 1.756-0.026 3.431-0.353 4.906-1.908 8.575-6.964 14.396-14.966 16.89-2.874 0.895-7.517 1.263-10.81 0.445-1.632-0.404-3.107-0.863-4.49-1.468-0.769-0.336-1.482-0.7-2.163-1.116-0.224-0.135-0.447-0.272-0.671-0.407 0.742 0.022 1.612 0.227 2.441 0.092 0.752-0.121 1.488-0.089 2.182-0.24 1.728-0.38 3.263-0.881 4.583-1.655 0.641-0.375 1.615-0.815 2.070-1.356-0.858 0.015-1.636-0.185-2.273-0.409-2.471-0.873-3.91-2.477-4.847-4.887 0.749 0.083 2.906 0.278 3.411-0.148-0.943-0.052-1.849-0.598-2.497-1.004-1.988-1.244-3.609-3.329-3.597-6.54 0.262 0.124 0.522 0.247 0.783 0.371 0.5 0.211 1.008 0.323 1.603 0.447 0.252 0.052 0.755 0.199 1.044 0.092-0.013 0-0.025 0-0.038 0-0.384-0.447-1.011-0.745-1.398-1.226-1.276-1.584-2.47-4.023-1.715-6.929 0.192-0.737 0.496-1.388 0.82-1.988 0.013 0.006 0.025 0.012 0.038 0.017 0.148 0.311 0.48 0.54 0.689 0.8 0.652 0.807 1.455 1.533 2.273 2.173 2.79 2.182 5.302 3.523 9.337 4.515 1.024 0.253 2.207 0.445 3.43 0.447-0.343-0.999-0.233-2.618 0.036-3.585 0.681-2.435 2.157-4.188 4.324-5.129 0.518-0.224 1.092-0.388 1.696-0.521 0.311-0.036 0.621-0.074 0.932-0.111z"/>
</symbol>

<symbol id="icon-alarm" viewBox="0 0 32 32">
<title>icon-alarm</title>
<path fill="#95e1d3" style="fill: var(--color2, #95e1d3)" d="M30.74 10c-1.623-3.714-4.526-6.617-8.139-8.201l-0.101-0.039c0.987-0.78 2.249-1.251 3.622-1.251 3.241 0 5.869 2.628 5.869 5.869 0 1.372-0.471 2.635-1.26 3.634l0.009-0.012zM30.5 16.5c0 0.002 0 0.004 0 0.006 0 3.852-1.509 7.352-3.968 9.94l0.006-0.006 2.028 2.028c0.275 0.27 0.446 0.645 0.446 1.061 0 0.82-0.665 1.485-1.485 1.485-0.415 0-0.791-0.171-1.060-0.445l-0-0-2.176-2.181c-2.31 1.635-5.186 2.613-8.29 2.613-3.098 0-5.968-0.974-8.322-2.634l0.046 0.031-2.163 2.163c-0.273 0.283-0.656 0.458-1.079 0.458-0.828 0-1.5-0.672-1.5-1.5 0-0.423 0.175-0.806 0.458-1.079l2.012-2.012c-2.44-2.588-3.94-6.086-3.94-9.934 0-8.005 6.489-14.494 14.494-14.494s14.494 6.489 14.494 14.494c0 0.003 0 0.005 0 0.008v-0zM16 5c-6.351 0-11.5 5.149-11.5 11.5s5.149 11.5 11.5 11.5c6.351 0 11.5-5.149 11.5-11.5v0c0-6.351-5.149-11.5-11.5-11.5v0zM22 18h-6c-0.828 0-1.5-0.672-1.5-1.5v0-8c0-0.828 0.672-1.5 1.5-1.5s1.5 0.672 1.5 1.5v0 6.5h4.5c0.828 0 1.5 0.672 1.5 1.5s-0.672 1.5-1.5 1.5v0zM1.287 10.205c-0.803-1.011-1.288-2.305-1.288-3.713 0-3.31 2.684-5.994 5.994-5.994 1.408 0 2.703 0.485 3.726 1.298l-0.012-0.009c-3.795 1.658-6.761 4.624-8.379 8.315l-0.040 0.103z"/>
</symbol>

<symbol id="icon-computer" viewBox="0 0 32 32">
<title>icon-computer</title>
<path fill="#95e1d3" style="fill: var(--color2, #95e1d3)" d="M30.452 25.29h-9.806v2.581l2.065 2.065v0.516h-13.419v-0.516l2.065-2.065v-2.581h-9.806c-0.855 0-1.548-0.693-1.548-1.548v0-20.645c0-0.855 0.693-1.548 1.548-1.548v0h28.903c0.855 0 1.548 0.693 1.548 1.548v0 20.645c0 0.855-0.693 1.548-1.548 1.548v0zM29.935 3.613h-27.871v17.548h27.871v-17.548zM12.903 10.839c0 0 0 0 0.001 0 0.427 0 0.814 0.173 1.095 0.453l0.969 0.969 3.034-3.034c0.28-0.28 0.668-0.454 1.095-0.454 0.855 0 1.549 0.693 1.549 1.549 0 0.427-0.173 0.815-0.453 1.095l-4.129 4.129c-0.28 0.28-0.667 0.454-1.095 0.454s-0.815-0.173-1.095-0.454l-2.065-2.065c-0.28-0.28-0.453-0.667-0.453-1.094 0-0.855 0.693-1.548 1.548-1.548h0z"/>
</symbol>

<symbol id="icon-frame" viewBox="0 0 32 32">
<title>icon-frame</title>
<path fill="#95e1d3" style="fill: var(--color2, #95e1d3)" d="M30.5 32h-29c-0.828 0-1.5-0.672-1.5-1.5v0-29c0-0.828 0.672-1.5 1.5-1.5v0h29c0.828 0 1.5 0.672 1.5 1.5v0 29c0 0.828-0.672 1.5-1.5 1.5v0zM29 3h-26v26h26v-26zM6.5 4.5h5.5c0.828 0 1.5 0.672 1.5 1.5s-0.672 1.5-1.5 1.5v0h-4.5v4.5c0 0.828-0.672 1.5-1.5 1.5s-1.5-0.672-1.5-1.5v0-7.5h2zM4.5 20c0-0.828 0.672-1.5 1.5-1.5s1.5 0.672 1.5 1.5v0 4.5h4.5c0.828 0 1.5 0.672 1.5 1.5s-0.672 1.5-1.5 1.5v0h-7.5v-7.5zM20 4.5h7.5v7.5c0 0.828-0.672 1.5-1.5 1.5s-1.5-0.672-1.5-1.5v0-4.5h-4.5c-0.828 0-1.5-0.672-1.5-1.5s0.672-1.5 1.5-1.5v0zM20 24.5h4.5v-4.5c0-0.828 0.672-1.5 1.5-1.5s1.5 0.672 1.5 1.5v0 7.5h-7.5c-0.828 0-1.5-0.672-1.5-1.5s0.672-1.5 1.5-1.5v0z"/>
</symbol>

<symbol id="icon-home" viewBox="0 0 32 32">
<title>icon-home</title>
<path fill="#95e1d3" style="fill: var(--color2, #95e1d3)" d="M32 16.5c-0.003 0.826-0.674 1.494-1.5 1.494-0.394 0-0.753-0.152-1.021-0.401l0.001 0.001-13.48-13.472-13.446 13.446c-0.273 0.278-0.652 0.451-1.072 0.451-0.828 0-1.5-0.672-1.5-1.5 0-0.434 0.184-0.825 0.479-1.099l0.001-0.001 14.458-14.459c0.273-0.284 0.656-0.46 1.080-0.46h0.091l0.068 0.005c0.371 0.042 0.695 0.213 0.932 0.467l0.001 0.001 5.9 5.9v-1.373c0-0.828 0.672-1.5 1.5-1.5s1.5 0.672 1.5 1.5v0 4.378l5.6 5.6c0.252 0.266 0.407 0.626 0.408 1.022v0zM29 19v10.5c0 0.828-0.672 1.5-1.5 1.5v0h-3v-12h-6v12h-14c-0.828 0-1.5-0.672-1.5-1.5v0-10.5l13-13zM13.5 19h-6v6h6v-6z"/>
</symbol>

<symbol id="icon-line_graph" viewBox="0 0 32 32">
<title>icon-line_graph</title>
<path fill="#95e1d3" style="fill: var(--color2, #95e1d3)" d="M30.5 32h-29c-0.828 0-1.5-0.672-1.5-1.5v0-29c0-0.828 0.672-1.5 1.5-1.5v0h29c0.828 0 1.5 0.672 1.5 1.5v0 29c0 0.828-0.672 1.5-1.5 1.5v0zM29 3h-26v26h26v-26zM5.215 16.238l4-2.5c0.223-0.139 0.494-0.222 0.785-0.222 0.314 0 0.605 0.096 0.846 0.261l-0.005-0.003 0.006-0.009 6.631 4.42 7.638-5.391c0.25-0.194 0.568-0.31 0.914-0.31 0.828 0 1.5 0.672 1.5 1.5 0 0.511-0.256 0.962-0.646 1.233l-0.005 0.003-8.5 6c-0.243 0.177-0.548 0.284-0.878 0.284-0.322 0-0.621-0.102-0.866-0.275l0.005 0.003-6.657-4.432-3.135 1.96c-0.231 0.153-0.515 0.244-0.82 0.244-0.83 0-1.502-0.672-1.502-1.502 0-0.528 0.272-0.992 0.685-1.26l0.006-0.004z"/>
</symbol>

<symbol id="icon-seo" viewBox="0 0 32 32">
<title>icon-seo</title>
<path fill="#95e1d3" style="fill: var(--color2, #95e1d3)" d="M31.065 25.889l-14.471 5.988c-0.175 0.078-0.379 0.123-0.593 0.123s-0.419-0.045-0.603-0.127l0.010 0.004-14.472-5.988c-0.553-0.229-0.935-0.764-0.935-1.389v-23c0-0.828 0.672-1.5 1.5-1.5 0.207 0 0.404 0.042 0.583 0.117l-0.010-0.004h0.013l13.914 5.762 13.924-5.756c0.17-0.073 0.368-0.115 0.576-0.115 0.827 0 1.497 0.669 1.5 1.495v23c-0 0.625-0.382 1.16-0.925 1.385l-0.010 0.004zM14.5 8.5l-11.5-4.756v19.756l11.5 4.759v-19.759zM29 3.744l-11.5 4.756v19.753l11.5-4.753v-19.756zM19.879 10.634l5.5-2.5c0.187-0.090 0.407-0.143 0.638-0.143 0.828 0 1.5 0.672 1.5 1.5 0 0.61-0.365 1.136-0.888 1.37l-0.009 0.004-5.5 2.5c-0.181 0.085-0.394 0.135-0.618 0.135-0.001 0-0.002 0-0.004 0h0c-0 0-0 0-0 0-0.828 0-1.5-0.672-1.5-1.5 0-0.604 0.357-1.124 0.871-1.362l0.009-0.004zM19.879 16.134l5.5-2.5c0.187-0.090 0.407-0.143 0.638-0.143 0.828 0 1.5 0.672 1.5 1.5 0 0.61-0.365 1.136-0.888 1.37l-0.009 0.004-5.5 2.5c-0.187 0.090-0.407 0.143-0.638 0.143-0.828 0-1.5-0.672-1.5-1.5 0-0.61 0.365-1.136 0.888-1.37l0.009-0.004zM19.879 21.634l5.5-2.5c0.187-0.090 0.407-0.143 0.638-0.143 0.828 0 1.5 0.672 1.5 1.5 0 0.61-0.365 1.136-0.888 1.37l-0.009 0.004-5.5 2.5c-0.181 0.085-0.394 0.135-0.618 0.135-0.001 0-0.002 0-0.004 0h0c-0 0-0 0-0 0-0.828 0-1.5-0.672-1.5-1.5 0-0.604 0.357-1.124 0.871-1.362l0.009-0.004zM6 8c0 0 0.001 0 0.001 0 0.225 0 0.438 0.049 0.629 0.138l-0.009-0.004 5.5 2.5c0.524 0.242 0.88 0.762 0.88 1.366 0 0.828-0.672 1.5-1.5 1.5-0 0-0.001 0-0.001 0h0c-0.001 0-0.002 0-0.003 0-0.224 0-0.437-0.050-0.627-0.139l0.009 0.004-5.5-2.5c-0.522-0.242-0.878-0.762-0.878-1.365 0-0.828 0.671-1.499 1.499-1.5h0zM6 13.5c0 0 0.001 0 0.001 0 0.225 0 0.438 0.049 0.629 0.138l-0.009-0.004 5.5 2.5c0.533 0.238 0.897 0.763 0.897 1.374 0 0.828-0.672 1.5-1.5 1.5-0.232 0-0.451-0.053-0.647-0.147l0.009 0.004-5.5-2.5c-0.522-0.242-0.878-0.762-0.878-1.365 0-0.828 0.67-1.499 1.498-1.5h0zM6 19c0 0 0.001 0 0.001 0 0.225 0 0.438 0.049 0.629 0.138l-0.009-0.004 5.5 2.5c0.524 0.242 0.88 0.762 0.88 1.366 0 0.828-0.672 1.5-1.5 1.5-0 0-0.001 0-0.001 0h0c-0.001 0-0.002 0-0.003 0-0.224 0-0.437-0.050-0.627-0.139l0.009 0.004-5.5-2.5c-0.522-0.242-0.878-0.762-0.878-1.365 0-0.828 0.671-1.499 1.499-1.5h0z"/>
</symbol>
</defs><symbol id="icon-cart"><path data-name="SHOPPING CART" d="M17.54 3.1l-2.48 5.5a.815.815 0 0 1-.7.484l-7.12.475.41 1.177h7.76a1.65 1.65 0 1 1-1.65 1.651h-7.7a1.65 1.65 0 1 1-1.65-1.651H5.9L2.72 1.661H.83a.825.825 0 0 1 0-1.65h2.48a.835.835 0 0 1 .78.554l.48 1.373h12.21a.826.826 0 0 1 .83.825.941.941 0 0 1-.07.337zm-12.39.487l1.52 4.357 7.09-.473 1.75-3.884H5.15z" fill="#fff" fill-rule="evenodd"/></symbol><symbol id="icon-search"><path data-name="MAGNIFYING GLASS" d="M17.13 14.795a1.653 1.653 0 0 1-2.34 2.334l-4.83-4.836a6.627 6.627 0 1 1 2.33-2.334l4.84 4.836zM6.61 1.661a4.95 4.95 0 1 0 4.95 4.95 4.953 4.953 0 0 0-4.95-4.95z" fill="#fff" fill-rule="evenodd"/></symbol><symbol id="icon-sprite">

</symbol></svg>