<svg aria-hidden="true" style="position:absolute;width:0;height:0" xmlns="http://www.w3.org/2000/svg" overflow="hidden"><defs><symbol id="icon-cart" viewBox="0 0 40 32"><path d="M40.027 7.082l-5.659 12.551a1.861 1.861 0 0 1-1.592 1.104h-.005l-16.248 1.084.936 2.686h17.709a3.765 3.765 0 1 1-3.765 3.767H13.831a3.765 3.765 0 1 1-3.765-3.767h3.4L6.209 3.797H1.896a1.883 1.883 0 1 1 0-3.766h5.659c.817.006 1.51.525 1.776 1.251l.004.013 1.095 3.133h27.873c1.04 0 1.884.843 1.885 1.883a2.136 2.136 0 0 1-.165.783l.005-.014zM11.752 8.194l3.469 9.943 16.18-1.079 3.994-8.863H11.753z"/></symbol><symbol id="icon-search" viewBox="0 0 32 32"><path d="M31.111 26.862a3.002 3.002 0 0 1-4.25 4.236l.001.001-8.769-8.78a11.896 11.896 0 0 1-6.132 1.68c-6.645 0-12.032-5.387-12.032-12.032S5.316-.065 11.961-.065c6.645 0 12.032 5.387 12.032 12.032 0 2.255-.62 4.365-1.7 6.169l.03-.055 8.788 8.78zm-19.1-23.846a8.987 8.987 0 1 0 8.987 8.987 8.993 8.993 0 0 0-8.987-8.987z"/></symbol><symbol id="icon-facebook" viewBox="0 0 16 32"><path d="M14.879.245v5.072s-3.738-.373-4.674 1.06c-.512.783-.208 3.077-.254 4.724h4.959c-.418 1.925-.719 3.23-1.028 4.896H9.924v15.759h-6.87V16.059H.131v-4.958h2.891c.148-3.626.203-7.217 2.005-9.046C7.05-.002 8.981.246 14.879.246z"/></symbol><symbol id="icon-instagram" viewBox="0 0 32 32"><path d="M27.938 31.754H4.307a3.939 3.939 0 0 1-3.938-3.94V4.184A3.94 3.94 0 0 1 4.307.244h23.631a3.939 3.939 0 0 1 3.938 3.94v23.63a3.94 3.94 0 0 1-3.938 3.94zM16.123 9.894a6.1 6.1 0 0 0-5.536 3.545h-.006c-.01.022-.017.046-.027.068-.058.129-.108.262-.158.395-.023.065-.049.128-.07.192a5.51 5.51 0 0 0-.117.418c-.017.065-.037.13-.052.197a6.11 6.11 0 0 0-.075.453c-.009.062-.021.122-.028.185a6.104 6.104 0 0 0 6.069 6.757 6.104 6.104 0 0 0 6.069-6.757c-.007-.063-.02-.123-.028-.185a6.11 6.11 0 0 0-.075-.453c-.015-.066-.034-.132-.052-.197a4.87 4.87 0 0 0-.117-.418c-.021-.064-.047-.127-.07-.192a6.132 6.132 0 0 0-.158-.395c-.01-.022-.017-.046-.027-.068h-.006a6.1 6.1 0 0 0-5.536-3.545zm12.209-4.529c0-.87-.705-1.574-1.575-1.574h-3.151c-.87 0-1.575.704-1.575 1.574v3.152c0 .87.705 1.575 1.575 1.575h3.151c.87 0 1.575-.705 1.575-1.575V5.365zm0 8.074h-2.905c.224.816.345 1.675.345 2.561 0 5.329-4.32 9.648-9.649 9.648S6.474 21.329 6.474 16c0-.886.121-1.745.345-2.561H3.914v13.194c0 .871.705 1.577 1.575 1.577h21.268c.87 0 1.575-.705 1.575-1.577V13.439z"/></symbol><symbol id="icon-pinterest" viewBox="0 0 26 32"><path d="M11.14 20.743c-.257 1.025-.517 2.1-.785 3.151-.265 1.036-.498 2.087-.884 3.04-.639 1.577-1.45 3.1-2.514 4.334-.708.821-.558.494-.77.449-.162-.034-.176-.193-.208-.425-.174-1.253-.055-2.702.009-4.11.074-1.605.411-2.939.725-4.272.596-2.54 1.164-5.03 1.766-7.586.039-.17.148-.45.111-.548-.273-.71-.45-1.348-.528-2.094a6.66 6.66 0 0 1 .171-2.391c.341-1.302 1.124-2.455 2.331-2.878.768-.266 1.618-.145 2.135.162.532.319.897.821 1.067 1.534.182.757.048 1.663-.098 2.327-.329 1.5-.761 2.626-1.153 4.074-.194.718-.415 1.455-.233 2.23a2.598 2.598 0 0 0 1.042 1.569c.524.382 1.145.59 2 .56 1.511-.053 2.561-1.019 3.263-1.93 1.124-1.458 1.803-3.426 2.062-5.767.082-.756.144-1.623.086-2.479-.108-1.58-.602-2.852-1.387-3.836-.746-.939-1.804-1.685-3.092-2.106-1.276-.416-3.042-.555-4.612-.287-2.853.489-4.864 2.11-6.049 4.348-.62 1.172-1.03 2.519-1.03 4.197 0 1.294.319 2.295.834 3.077.164.247.404.452.564.735.228.401-.034.998-.146 1.433-.135.523-.15 1.246-.761 1.258-.254.005-.571-.18-.785-.299-1.606-.887-2.581-2.502-2.981-4.596-.244-1.273-.242-2.756 0-3.985a11.36 11.36 0 0 1 1.153-3.177C3.445 4.605 4.913 3.126 6.7 2.07 8.074 1.258 9.623.688 11.509.413c.625-.091 1.273-.129 1.975-.162a11.87 11.87 0 0 1 5.324.997 10.884 10.884 0 0 1 3.668 2.641c1.031 1.126 1.782 2.436 2.257 4.073.249.852.49 1.762.49 2.815 0 1.056-.223 1.985-.379 2.914-.583 3.481-2.239 6.327-4.724 7.948a8.206 8.206 0 0 1-2.159.996c-.821.239-1.758.418-2.761.348-.974-.066-1.771-.331-2.441-.71-.665-.375-1.223-.836-1.62-1.531z"/></symbol><symbol id="icon-twitter" viewBox="0 0 38 32"><path d="M25.473.874c2.959-.052 4.534 1.025 6.038 2.396 1.277-.109 2.937-.822 3.914-1.319l.95-.519c-.559 1.508-1.315 2.689-2.479 3.587-.259.198-.515.467-.839.593v.019c1.658-.016 3.025-.765 4.324-1.171v.019c-.682 1.084-1.606 2.185-2.591 2.973l-1.193.947c.022 1.756-.026 3.431-.353 4.906-1.908 8.575-6.964 14.396-14.966 16.89-2.874.895-7.517 1.263-10.81.445-1.632-.404-3.107-.863-4.49-1.468-.769-.336-1.482-.7-2.163-1.116l-.671-.407c.742.022 1.612.227 2.441.092.752-.121 1.488-.089 2.182-.24 1.728-.38 3.263-.881 4.583-1.655.641-.375 1.615-.815 2.07-1.356-.858.015-1.636-.185-2.273-.409-2.471-.873-3.91-2.477-4.847-4.887.749.083 2.906.278 3.411-.148-.943-.052-1.849-.598-2.497-1.004-1.988-1.244-3.609-3.329-3.597-6.54l.783.371c.5.211 1.008.323 1.603.447.252.052.755.199 1.044.092h-.038c-.384-.447-1.011-.745-1.398-1.226-1.276-1.584-2.47-4.023-1.715-6.929.192-.737.496-1.388.82-1.988l.038.017c.148.311.48.54.689.8.652.807 1.455 1.533 2.273 2.173 2.79 2.182 5.302 3.523 9.337 4.515 1.024.253 2.207.445 3.43.447-.343-.999-.233-2.618.036-3.585.681-2.435 2.157-4.188 4.324-5.129a9.364 9.364 0 0 1 1.696-.521c.311-.036.621-.074.932-.111z"/></symbol><symbol id="icon-alarm" viewBox="0 0 32 32"><path fill="var(--color2, #95e1d3)" d="M30.74 10c-1.623-3.714-4.526-6.617-8.139-8.201L22.5 1.76a5.87 5.87 0 0 1 8.231 8.252L30.74 10zm-.24 6.5v.006c0 3.852-1.509 7.352-3.968 9.94l.006-.006 2.028 2.028a1.485 1.485 0 1 1-2.099 2.101l-2.176-2.181a14.336 14.336 0 0 1-8.29 2.613c-3.098 0-5.968-.974-8.322-2.634l.046.031-2.163 2.163a1.5 1.5 0 1 1-2.121-2.121l2.012-2.012a14.439 14.439 0 0 1-3.94-9.934C1.513 8.489 8.002 2 16.007 2s14.494 6.489 14.494 14.494v.008zM16 5C9.649 5 4.5 10.149 4.5 16.5S9.649 28 16 28s11.5-5.149 11.5-11.5S22.351 5 16 5zm6 13h-6a1.5 1.5 0 0 1-1.5-1.5v-8a1.5 1.5 0 0 1 3 0V15H22a1.5 1.5 0 0 1 0 3zM1.287 10.205a5.995 5.995 0 0 1 8.432-8.409l-.012-.009c-3.795 1.658-6.761 4.624-8.379 8.315l-.04.103z"/></symbol><symbol id="icon-computer" viewBox="0 0 32 32"><path fill="var(--color2, #95e1d3)" d="M30.452 25.29h-9.806v2.581l2.065 2.065v.516H9.292v-.516l2.065-2.065V25.29H1.551a1.548 1.548 0 0 1-1.548-1.548V3.097c0-.855.693-1.548 1.548-1.548h28.903c.855 0 1.548.693 1.548 1.548v20.645c0 .855-.693 1.548-1.548 1.548zm-.517-21.677H2.064v17.548h27.871V3.613zm-17.032 7.226h.001c.427 0 .814.173 1.095.453l.969.969 3.034-3.034a1.549 1.549 0 0 1 2.191 2.19l-4.129 4.129a1.544 1.544 0 0 1-2.19 0l-2.065-2.065a1.548 1.548 0 0 1 1.095-2.642z"/></symbol><symbol id="icon-frame" viewBox="0 0 32 32"><path fill="var(--color2, #95e1d3)" d="M30.5 32h-29A1.5 1.5 0 0 1 0 30.5v-29A1.5 1.5 0 0 1 1.5 0h29A1.5 1.5 0 0 1 32 1.5v29a1.5 1.5 0 0 1-1.5 1.5zM29 3H3v26h26V3zM6.5 4.5H12a1.5 1.5 0 0 1 0 3H7.5V12a1.5 1.5 0 0 1-3 0V4.5h2zM4.5 20a1.5 1.5 0 0 1 3 0v4.5H12a1.5 1.5 0 0 1 0 3H4.5V20zM20 4.5h7.5V12a1.5 1.5 0 0 1-3 0V7.5H20a1.5 1.5 0 0 1 0-3zm0 20h4.5V20a1.5 1.5 0 0 1 3 0v7.5H20a1.5 1.5 0 0 1 0-3z"/></symbol><symbol id="icon-home" viewBox="0 0 32 32"><path fill="var(--color2, #95e1d3)" d="M32 16.5a1.5 1.5 0 0 1-2.521 1.093l.001.001L16 4.122 2.554 17.568A1.5 1.5 0 1 1 .461 15.42l.001-.001L14.92.96C15.193.676 15.576.5 16 .5h.091l.068.005c.371.042.695.213.932.467l.001.001 5.9 5.9V5.5a1.5 1.5 0 0 1 3 0v4.378l5.6 5.6c.252.266.407.626.408 1.022zM29 19v10.5a1.5 1.5 0 0 1-1.5 1.5h-3V19h-6v12h-14A1.5 1.5 0 0 1 3 29.5V19L16 6zm-15.5 0h-6v6h6v-6z"/></symbol><symbol id="icon-line_graph" viewBox="0 0 32 32"><path fill="var(--color2, #95e1d3)" d="M30.5 32h-29A1.5 1.5 0 0 1 0 30.5v-29A1.5 1.5 0 0 1 1.5 0h29A1.5 1.5 0 0 1 32 1.5v29a1.5 1.5 0 0 1-1.5 1.5zM29 3H3v26h26V3zM5.215 16.238l4-2.5c.223-.139.494-.222.785-.222.314 0 .605.096.846.261l-.005-.003.006-.009 6.631 4.42 7.638-5.391a1.5 1.5 0 0 1 1.768 2.423l-.005.003-8.5 6a1.497 1.497 0 0 1-1.744.009l.005.003L9.983 16.8l-3.135 1.96a1.501 1.501 0 0 1-1.637-2.518l.006-.004z"/></symbol><symbol id="icon-seo" viewBox="0 0 32 32"><path fill="var(--color2, #95e1d3)" d="M31.065 25.889l-14.471 5.988a1.48 1.48 0 0 1-1.196-.004l.01.004L.936 25.889A1.502 1.502 0 0 1 .001 24.5v-23A1.5 1.5 0 0 1 2.084.117l-.01-.004h.013l13.914 5.762L29.925.119a1.5 1.5 0 0 1 2.076 1.38v23c0 .625-.382 1.16-.925 1.385l-.01.004zM14.5 8.5L3 3.744V23.5l11.5 4.759V8.5zM29 3.744L17.5 8.5v19.753L29 23.5V3.744zm-9.121 6.89l5.5-2.5a1.5 1.5 0 0 1 1.25 2.727l-.009.004-5.5 2.5a1.463 1.463 0 0 1-.618.135h-.004a1.5 1.5 0 0 1-.629-2.862l.009-.004zm0 5.5l5.5-2.5a1.5 1.5 0 0 1 1.25 2.727l-.009.004-5.5 2.5a1.5 1.5 0 0 1-1.25-2.727l.009-.004zm0 5.5l5.5-2.5a1.5 1.5 0 0 1 1.25 2.727l-.009.004-5.5 2.5a1.463 1.463 0 0 1-.618.135h-.004a1.5 1.5 0 0 1-.629-2.862l.009-.004zM6 8h.001c.225 0 .438.049.629.138l-.009-.004 5.5 2.5a1.5 1.5 0 0 1-.62 2.866h-.004c-.224 0-.437-.05-.627-.139l.009.004-5.5-2.5A1.5 1.5 0 0 1 6 8zm0 5.5h.001c.225 0 .438.049.629.138l-.009-.004 5.5 2.5a1.5 1.5 0 1 1-1.25 2.727l.009.004-5.5-2.5A1.5 1.5 0 0 1 6 13.5zM6 19h.001c.225 0 .438.049.629.138l-.009-.004 5.5 2.5a1.5 1.5 0 0 1-.62 2.866h-.004c-.224 0-.437-.05-.627-.139l.009.004-5.5-2.5A1.5 1.5 0 0 1 6 19z"/></symbol></defs></svg>